# xmcd
#
# Track frame offsets:
#	150
#	1530
#	4867
#	7625
#	29711
#	33902
#	51602
#	58807
#	79798
#	93341
#	98141
#	117826
#	121572
#	127084
#	138581
#	143080
#	157179
#	167320
#	168746
#	173171
#
# Disc length: 2572 seconds
#
# Revision: 1
# Processed by: cddbd v1.5.2PL0 Copyright (c) Steve Scherf et al.
# Submitted via: audiograbber 1.83.01
#
DISCID=fc0a0a14
DTITLE=Die letzten Bänkelsänger - Have you Ladwäjerierer
DYEAR=1995
DGENRE=Mundart
TTITLE0=Eroeffnungsmelodie
TTITLE1=Die See'mer Betzelbeern
TTITLE2=Unser Mundartsproach
TTITLE3=Have you Ladwäjerierer
TTITLE4=Gold und Silber
TTITLE5=Unser'n Schlossteich
TTITLE6=Ostern uff'm Kreizberg
TTITLE7=Potpourri und Einzug Baenkelsaenger
TTITLE8=Der Wilddieb
TTITLE9=Drehorgel
TTITLE10=Die ungetreue Gaertnersfrau
TTITLE11=Freut euch des Lebens
TTITLE12=Die anner Seid
TTITLE13=Die Scholze Greet
TTITLE14=Es dunkelt schon in der Heide
TTITLE15=Das Elternhaus
TTITLE16=Mutters Haende
TTITLE17=Guck ins Laewe ned so drueb
TTITLE18=Tief im Odenwald
TTITLE19=Schaej wie dhaom
EXTD=
EXTT0=
EXTT1=
EXTT2=
EXTT3=
EXTT4=
EXTT5=
EXTT6=
EXTT7=
EXTT8=
EXTT9=
EXTT10=
EXTT11=
EXTT12=
EXTT13=
EXTT14=
EXTT15=
EXTT16=
EXTT17=
EXTT18=
EXTT19=
PLAYORDER=
